<svg width="32" height="32" viewBox="0 0 32 32" fill="none" xmlns="http://www.w3.org/2000/svg">
  <rect width="32" height="32" rx="6" fill="#f97316"/>
  <path d="M16 8C13.2386 8 11 10.2386 11 13C11 14.8638 11.9463 16.5 13.3776 17.4472C13.1401 18.0444 13 18.7033 13 19.4C13 21.3882 14.6118 23 16.6 23C18.5882 23 20.2 21.3882 20.2 19.4C20.2 18.7033 20.0599 18.0444 19.8224 17.4472C21.2537 16.5 22.2 14.8638 22.2 13C22.2 10.2386 19.9614 8 17.2 8H16Z" fill="white"/>
  <circle cx="16" cy="13" r="2" fill="#f97316"/>
  <path d="M16 16L14 22H18L16 16Z" fill="white"/>
</svg>
