<svg width="192" height="192" viewBox="0 0 192 192" fill="none" xmlns="http://www.w3.org/2000/svg">
  <rect width="192" height="192" rx="42" fill="#f97316"/>
  <g transform="translate(48, 48)">
    <path d="M48 24C38.05 24 30 32.05 30 42C30 49.46 34.39 55.85 40.63 58.68C39.42 60.89 38.7 63.38 38.7 66.1C38.7 74.49 45.51 81.3 53.9 81.3C62.29 81.3 69.1 74.49 69.1 66.1C69.1 63.38 68.38 60.89 67.17 58.68C73.41 55.85 77.8 49.46 77.8 42C77.8 32.05 69.75 24 59.8 24H48Z" fill="white"/>
    <circle cx="48" cy="42" r="12" fill="#f97316"/>
    <path d="M48 54L42 78H54L48 54Z" fill="white"/>
    <path d="M48 12C42.48 12 38 16.48 38 22C38 27.52 42.48 32 48 32C53.52 32 58 27.52 58 22C58 16.48 53.52 12 48 12Z" fill="white" opacity="0.9"/>
    <path d="M20 48C20 42.48 24.48 38 30 38C35.52 38 40 42.48 40 48C40 53.52 35.52 58 30 58C24.48 58 20 53.52 20 48Z" fill="white" opacity="0.7"/>
    <path d="M56 48C56 42.48 60.48 38 66 38C71.52 38 76 42.48 76 48C76 53.52 71.52 58 66 58C60.48 58 56 53.52 56 48Z" fill="white" opacity="0.7"/>
  </g>
</svg>
