<svg width="512" height="512" viewBox="0 0 512 512" fill="none" xmlns="http://www.w3.org/2000/svg">
  <rect width="512" height="512" rx="112" fill="#f97316"/>
  <g transform="translate(128, 128)">
    <path d="M128 64C101.47 64 80 85.47 80 112C80 131.89 91.71 148.93 108.35 156.48C105.12 162.37 103.2 169.01 103.2 176.27C103.2 198.64 121.03 216.47 143.4 216.47C165.77 216.47 183.6 198.64 183.6 176.27C183.6 169.01 181.68 162.37 178.45 156.48C195.09 148.93 206.8 131.89 206.8 112C206.8 85.47 185.33 64 158.8 64H128Z" fill="white"/>
    <circle cx="128" cy="112" r="32" fill="#f97316"/>
    <path d="M128 144L112 208H144L128 144Z" fill="white"/>
    <path d="M128 32C118.61 32 111 39.61 111 49C111 58.39 118.61 66 128 66C137.39 66 145 58.39 145 49C145 39.61 137.39 32 128 32Z" fill="white" opacity="0.9"/>
    <path d="M53 128C53 118.61 60.61 111 70 111C79.39 111 87 118.61 87 128C87 137.39 79.39 145 70 145C60.61 145 53 137.39 53 128Z" fill="white" opacity="0.7"/>
    <path d="M149 128C149 118.61 156.61 111 166 111C175.39 111 183 118.61 183 128C183 137.39 175.39 145 166 145C156.61 145 149 137.39 149 128Z" fill="white" opacity="0.7"/>
  </g>
</svg>
